<svg xmlns="http://www.w3.org/2000/svg" xmlns:xlink="http://www.w3.org/1999/xlink" viewBox="0 0 2560 1679"><defs><style>.cls-1{opacity:0.82;}.cls-1,.cls-23,.cls-24,.cls-25,.cls-26,.cls-27,.cls-28,.cls-40,.cls-45,.cls-46,.cls-7{mix-blend-mode:hard-light;}.cls-2{fill:url(#linear-gradient);}.cls-3{fill:url(#linear-gradient-2);}.cls-4{isolation:isolate;}.cls-5{fill:#020017;}.cls-10,.cls-36,.cls-38,.cls-6{mix-blend-mode:overlay;}.cls-6{fill:url(#radial-gradient);}.cls-7{opacity:0.55;}.cls-8{fill:url(#linear-gradient-3);}.cls-12,.cls-13,.cls-9{fill:none;}.cls-11{fill:#ff8beb;}.cls-12,.cls-13{stroke:#fff;stroke-linecap:round;stroke-width:13px;opacity:0.73;}.cls-12{stroke-miterlimit:10;}.cls-13{stroke-linejoin:bevel;}.cls-14,.cls-15,.cls-16{opacity:0.15;}.cls-14{fill:url(#linear-gradient-4);}.cls-15{fill:url(#linear-gradient-5);}.cls-16{fill:url(#linear-gradient-6);}.cls-17{fill:url(#linear-gradient-7);}.cls-18,.cls-19{opacity:0.19;}.cls-18{fill:url(#linear-gradient-8);}.cls-19{fill:url(#linear-gradient-9);}.cls-20{fill:url(#linear-gradient-10);}.cls-21,.cls-22{opacity:0.51;mix-blend-mode:screen;}.cls-21{fill:url(#radial-gradient-2);}.cls-22{fill:url(#radial-gradient-3);}.cls-23,.cls-24,.cls-25,.cls-26,.cls-27,.cls-28,.cls-46{opacity:0.59;}.cls-23{fill:url(#radial-gradient-4);}.cls-24{fill:url(#radial-gradient-5);}.cls-25{fill:url(#radial-gradient-6);}.cls-26{fill:url(#radial-gradient-7);}.cls-27{fill:url(#linear-gradient-11);}.cls-28{fill:url(#linear-gradient-12);}.cls-29{fill:url(#linear-gradient-13);}.cls-30{fill:url(#linear-gradient-14);}.cls-31{fill:url(#linear-gradient-15);}.cls-32{fill:url(#linear-gradient-16);}.cls-33{fill:url(#linear-gradient-17);}.cls-34{fill:url(#linear-gradient-18);}.cls-35{fill:url(#linear-gradient-19);}.cls-36{opacity:0.27;}.cls-37{fill:#fff;}.cls-38{opacity:0.18;}.cls-39{fill:url(#linear-gradient-20);}.cls-40{opacity:0.4;}.cls-41{fill:url(#linear-gradient-21);}.cls-42{fill:url(#linear-gradient-22);}.cls-43{mix-blend-mode:color-dodge;fill:url(#linear-gradient-23);}.cls-44{mask:url(#mask);}.cls-45{fill:url(#linear-gradient-24);}.cls-46{fill:url(#linear-gradient-25);}.cls-47{filter:url(#luminosity-noclip);}</style><linearGradient id="linear-gradient" x1="1050.77" y1="480.1" x2="1290.78" y2="720.11" gradientUnits="userSpaceOnUse"><stop offset="0"/><stop offset="1"/></linearGradient><linearGradient id="linear-gradient-2" x1="995.5" y1="665.5" x2="1109" y2="779" xlink:href="#linear-gradient"/><radialGradient id="radial-gradient" cx="1254.5" cy="839.5" r="839.5" gradientUnits="userSpaceOnUse"><stop offset="0" stop-color="#fff"/><stop offset="1" stop-color="#fff" stop-opacity="0"/></radialGradient><linearGradient id="linear-gradient-3" x1="1048.94" y1="600.94" x2="1459.06" y2="1011.06" gradientUnits="userSpaceOnUse"><stop offset="0" stop-color="#e800ff"/><stop offset="0.09" stop-color="#e90ef7" stop-opacity="0.88"/><stop offset="0.35" stop-color="#eb35e1" stop-opacity="0.57"/><stop offset="0.58" stop-color="#ed53d0" stop-opacity="0.33"/><stop offset="0.77" stop-color="#ee69c3" stop-opacity="0.15"/><stop offset="0.91" stop-color="#ef76bc" stop-opacity="0.04"/><stop offset="1" stop-color="#ef7bb9" stop-opacity="0"/></linearGradient><linearGradient id="linear-gradient-4" x1="700.31" y1="292.33" x2="700.31" y2="464.33" gradientUnits="userSpaceOnUse"><stop offset="0" stop-color="#ff8cff"/><stop offset="1" stop-color="#0c9f92"/></linearGradient><linearGradient id="linear-gradient-5" x1="700.31" y1="305.33" x2="700.31" y2="453.33" xlink:href="#linear-gradient-4"/><linearGradient id="linear-gradient-6" x1="700.31" y1="316.33" x2="700.31" y2="440.33" xlink:href="#linear-gradient-4"/><linearGradient id="linear-gradient-7" x1="700.31" y1="328.33" x2="700.31" y2="428.33" xlink:href="#linear-gradient-4"/><linearGradient id="linear-gradient-8" x1="1839.2" y1="1097.96" x2="1822.83" y2="1261.67" gradientUnits="userSpaceOnUse"><stop offset="0.35" stop-color="#ff8c3a"/><stop offset="0.66" stop-color="#fff53f"/></linearGradient><linearGradient id="linear-gradient-9" x1="1839.2" y1="1097.96" x2="1822.83" y2="1261.67" gradientUnits="userSpaceOnUse"><stop offset="0" stop-color="#ff8c3a"/><stop offset="1" stop-color="#fff53f"/></linearGradient><linearGradient id="linear-gradient-10" x1="1837.65" y1="985.07" x2="1823.31" y2="1148.97" gradientTransform="translate(3662 2241) rotate(180)" gradientUnits="userSpaceOnUse"><stop offset="0.33" stop-color="#ff8c3a"/><stop offset="0.6" stop-color="#fff53f"/></linearGradient><radialGradient id="radial-gradient-2" cx="782" cy="883" r="20" gradientTransform="matrix(Infinity, Infinity, Infinity, Infinity, Infinity, Infinity)" gradientUnits="userSpaceOnUse"><stop offset="0.01" stop-color="#6aff8c"/><stop offset="0.1" stop-color="#6fff90" stop-opacity="0.97"/><stop offset="0.25" stop-color="#7eff9b" stop-opacity="0.88"/><stop offset="0.42" stop-color="#96ffae" stop-opacity="0.73"/><stop offset="0.63" stop-color="#b7ffc8" stop-opacity="0.53"/><stop offset="0.85" stop-color="#e1ffe8" stop-opacity="0.28"/><stop offset="1" stop-color="#fff" stop-opacity="0.1"/></radialGradient><radialGradient id="radial-gradient-3" cx="1732" cy="502" r="20" xlink:href="#radial-gradient-2"/><radialGradient id="radial-gradient-4" cx="585.48" cy="627.99" r="27.05" gradientUnits="userSpaceOnUse"><stop offset="0.01" stop-color="#ffff45"/><stop offset="0.1" stop-color="#ffff4c" stop-opacity="0.97"/><stop offset="0.25" stop-color="#ffff5e" stop-opacity="0.88"/><stop offset="0.42" stop-color="#ffff7c" stop-opacity="0.73"/><stop offset="0.63" stop-color="#ffffa5" stop-opacity="0.53"/><stop offset="0.85" stop-color="#ffffda" stop-opacity="0.28"/><stop offset="1" stop-color="#fff" stop-opacity="0.1"/></radialGradient><radialGradient id="radial-gradient-5" cx="2041.48" cy="521.99" r="27.05" xlink:href="#radial-gradient-4"/><radialGradient id="radial-gradient-6" cx="1346.81" cy="1142.7" r="17.47" xlink:href="#radial-gradient-4"/><radialGradient id="radial-gradient-7" cx="1151.81" cy="196.7" r="17.47" xlink:href="#radial-gradient-4"/><linearGradient id="linear-gradient-11" x1="710.37" y1="489.79" x2="796.65" y2="489.79" xlink:href="#radial-gradient"/><linearGradient id="linear-gradient-12" x1="1050.43" y1="1174.7" x2="1115.28" y2="1174.7" xlink:href="#radial-gradient"/><linearGradient id="linear-gradient-13" x1="1285.03" y1="875.96" x2="1237.74" y2="608.98" gradientUnits="userSpaceOnUse"><stop offset="0" stop-color="#0e00bf"/><stop offset="0.81" stop-color="#00b1b9"/></linearGradient><linearGradient id="linear-gradient-14" x1="1528.97" y1="684.49" x2="1529.1" y2="684.49" xlink:href="#linear-gradient-13"/><linearGradient id="linear-gradient-15" x1="980" y1="692.29" x2="980.5" y2="692.29" xlink:href="#linear-gradient-13"/><linearGradient id="linear-gradient-16" x1="1333.05" y1="683.39" x2="1326.77" y2="650.22" gradientUnits="userSpaceOnUse"><stop offset="0" stop-color="#0e00bf"/><stop offset="0.21" stop-color="#00b1b9"/></linearGradient><linearGradient id="linear-gradient-17" x1="1126.89" y1="777.13" x2="1140.74" y2="609.4" xlink:href="#linear-gradient-13"/><linearGradient id="linear-gradient-18" x1="979.08" y1="824.49" x2="1529" y2="824.49" xlink:href="#linear-gradient-13"/><linearGradient id="linear-gradient-19" x1="1528.94" y1="685.53" x2="1529" y2="685.53" xlink:href="#linear-gradient-13"/><linearGradient id="linear-gradient-20" x1="1002.81" y1="660.98" x2="1505.19" y2="951.02" xlink:href="#radial-gradient"/><linearGradient id="linear-gradient-21" x1="1059.55" y1="492.55" x2="1448.45" y2="881.45" gradientUnits="userSpaceOnUse"><stop offset="0" stop-color="#fff" stop-opacity="0"/><stop offset="0.46" stop-color="#ffffdf" stop-opacity="0.13"/><stop offset="1" stop-color="#fdff00"/></linearGradient><linearGradient id="linear-gradient-22" x1="1309.01" y1="983.63" x2="1180.74" y2="509.86" gradientUnits="userSpaceOnUse"><stop offset="0" stop-color="#5a00ff"/><stop offset="0.78" stop-color="#ff3f7f"/></linearGradient><linearGradient id="linear-gradient-23" x1="1530.87" y1="1180.36" x2="1321.91" y2="927.96" gradientUnits="userSpaceOnUse"><stop offset="0.01" stop-color="#ff7fd4"/><stop offset="0.97" stop-color="#21002a"/></linearGradient><filter id="luminosity-noclip" x="818.41" y="370.15" width="871.18" height="633.7" filterUnits="userSpaceOnUse" color-interpolation-filters="sRGB"><feFlood flood-color="#fff" result="bg"/><feBlend in="SourceGraphic" in2="bg"/></filter><mask id="mask" x="818.41" y="489.15" width="871.18" height="633.7" maskUnits="userSpaceOnUse"><g class="cls-47"><g transform="translate(0 119)"><g class="cls-1"><path class="cls-2" d="M1180,758c162.8-101.18,252.4-198.26,311-238.13A289.64,289.64,0,0,0,1254,397c-160.16,0-290,129.84-290,290a288.67,288.67,0,0,0,49.88,162.65C1048.77,830.45,1103.62,805.47,1180,758Z"/></g><path class="cls-3" d="M953,708c8.58,18.86,17.23,37.84,22,58,9,38,33.92,64.86,49,98l128-212a211.55,211.55,0,0,0-59-5C1021.86,651.05,972.33,690.59,953,708Z"/></g></g></mask><linearGradient id="linear-gradient-24" x1="1354.15" y1="833.88" x2="1210.7" y2="623.49" gradientUnits="userSpaceOnUse"><stop offset="0.01" stop-color="#9456dc"/><stop offset="0.11" stop-color="#995ddd" stop-opacity="0.96"/><stop offset="0.27" stop-color="#a571e2" stop-opacity="0.86"/><stop offset="0.46" stop-color="#b991e8" stop-opacity="0.69"/><stop offset="0.68" stop-color="#d5bdf1" stop-opacity="0.45"/><stop offset="0.93" stop-color="#f9f5fd" stop-opacity="0.15"/><stop offset="0.97" stop-color="#fff" stop-opacity="0.1"/></linearGradient><linearGradient id="linear-gradient-25" x1="1560.37" y1="229.79" x2="1646.65" y2="229.79" gradientTransform="matrix(1.13, -0.05, -0.05, 1.13, -185.47, 51.46)" xlink:href="#radial-gradient"/></defs><title>planet</title><g class="cls-4"><g id="BG"><rect class="cls-5" y="119" width="2560" height="1440"/><circle class="cls-6" cx="1254.5" cy="839.5" r="839.5"/></g><g id="Layer_2" data-name="Layer 2"><g id="base" class="cls-7"><circle class="cls-8" cx="1254" cy="806" r="290"/></g><circle class="cls-9" cx="1254" cy="806" r="290"/><circle class="cls-9" cx="1254" cy="806" r="290"/><g id="outline" class="cls-10"><path class="cls-11" d="M1254,397c-160.16,0-290,129.84-290,290s129.84,290,290,290,290-129.84,290-290S1414.16,397,1254,397Zm194.45,484.45A275,275,0,1,1,1529,687,273.19,273.19,0,0,1,1448.45,881.45Z" transform="translate(0 119)"/></g><path id="streak" class="cls-12" d="M1134.77,502a217.35,217.35,0,0,1,63.53-27.95" transform="translate(0 119)"/><path id="streak-2" data-name="streak" class="cls-13" d="M1070.23,565.93a221.6,221.6,0,0,1,24.68-30.88" transform="translate(0 119)"/><path id="streak-3" data-name="streak" class="cls-13" d="M1070.23,565.93" transform="translate(0 119)"/><circle id="shadow" class="cls-14" cx="700.31" cy="378.33" r="86"/><circle id="shadow-2" data-name="shadow" class="cls-15" cx="700.31" cy="379.33" r="74"/><circle id="shadow-3" data-name="shadow" class="cls-16" cx="700.31" cy="378.33" r="62"/><circle id="teal_planet" data-name="teal planet" class="cls-17" cx="700.31" cy="378.33" r="50"/><circle id="shadow-4" data-name="shadow" class="cls-18" cx="1831" cy="1180" r="49"/><circle id="shadow-5" data-name="shadow" class="cls-19" cx="1831" cy="1180" r="37"/><circle id="yellow_planet" data-name="yellow planet" class="cls-20" cx="1831" cy="1180" r="25"/><circle id="planet" class="cls-21" cx="782" cy="1002" r="20"/><circle id="planet-2" data-name="planet" class="cls-22" cx="1732" cy="621" r="20"/><path id="star" class="cls-23" d="M611.84,627.92l-21.53,3.91a.83.83,0,0,0-.67.73l-2.45,21.75a.83.83,0,0,1-1.64.05l-3.91-21.53a.84.84,0,0,0-.72-.68l-21.75-2.44a.83.83,0,0,1-.06-1.64l21.53-3.91a.84.84,0,0,0,.68-.73l2.44-21.75a.83.83,0,0,1,1.64,0l3.92,21.53a.83.83,0,0,0,.72.68l21.75,2.44A.83.83,0,0,1,611.84,627.92Z" transform="translate(0 119)"/><path id="star-2" data-name="star" class="cls-24" d="M2067.84,521.92l-21.53,3.91a.83.83,0,0,0-.67.73l-2.45,21.75a.83.83,0,0,1-1.64.05l-3.91-21.53a.84.84,0,0,0-.72-.68l-21.75-2.44a.83.83,0,0,1-.06-1.64l21.53-3.91a.84.84,0,0,0,.68-.73l2.44-21.75a.83.83,0,0,1,1.64-.05l3.92,21.53a.83.83,0,0,0,.72.68l21.75,2.44A.83.83,0,0,1,2067.84,521.92Z" transform="translate(0 119)"/><path id="star-3" data-name="star" class="cls-25" d="M1363.84,1142.65l-13.91,2.53a.54.54,0,0,0-.44.46l-1.58,14a.54.54,0,0,1-1.06,0l-2.52-13.91a.56.56,0,0,0-.47-.44l-14-1.58a.54.54,0,0,1,0-1.06l13.91-2.52a.55.55,0,0,0,.44-.47l1.58-14a.54.54,0,0,1,1.06,0l2.53,13.91a.53.53,0,0,0,.46.44l14,1.58A.54.54,0,0,1,1363.84,1142.65Z" transform="translate(0 119)"/><path id="star-4" data-name="star" class="cls-26" d="M1168.84,196.65l-13.91,2.53a.54.54,0,0,0-.44.46l-1.58,14.05a.54.54,0,0,1-1.06,0l-2.52-13.91a.56.56,0,0,0-.47-.44l-14-1.58a.54.54,0,0,1,0-1.06l13.91-2.52a.55.55,0,0,0,.44-.47l1.58-14.05a.54.54,0,0,1,1.06,0l2.53,13.91a.53.53,0,0,0,.46.44l14,1.58A.54.54,0,0,1,1168.84,196.65Z" transform="translate(0 119)"/><path id="tear" class="cls-27" d="M729.19,527c-5.83,5.84-13.44,7.67-17,4.11s-1.72-11.18,4.11-17,80.36-67.45,80.36-67.45S735,521.17,729.19,527Z" transform="translate(0 119)"/><path id="tear-2" data-name="tear" class="cls-28" d="M1068.34,1203.77c-4.28,4.28-11,4.49-15,.47s-3.81-10.74.47-15,61.5-46.94,61.5-46.94S1072.61,1199.49,1068.34,1203.77Z" transform="translate(0 119)"/><path class="cls-29" d="M1287.68,687.73c-41.24,21.46-78,47.29-131.68,54.27-45.52,5.91-100.83-7.32-175.5-49.72-1.5-.28-.3.2-.45.31C979,704,979,724,987,754c13.45,50.44,51.81,116.23,72.55,122.45C1088,885,1180.54,957,1254,957a273.19,273.19,0,0,0,194.45-80.55C1477.8,847.11,1500.51,813,1514,775c9.85-27.72,14.41-57.82,14.94-88-43.7-13.13-90.25-32.9-138.94-30-5.32.32-10.47.82-15.48,1.47" transform="translate(0 119)"/><path class="cls-30" d="M1529,682c0,.69,0,1.37,0,2.06q0,1.47,0,2.94C1529.22,691.51,1529,677.45,1529,682Z" transform="translate(0 119)"/><path class="cls-31" d="M980,692c0,.19,0,.39,0,.59l.45-.31Z" transform="translate(0 119)"/><path class="cls-32" d="M1374.52,658.47c-34.07,4.4-61.33,16-86.84,29.26" transform="translate(0 119)"/><path class="cls-33" d="M1156,742c53.72-7,90.44-32.81,131.68-54.27-6.93.29-9.68,1.27-20.68-.73-24.34-4.43-21-5-49.82-15.88C1176,653,1163.37,649.38,1121,647c0,0-14.64-.81-29,0-37.79,2.14-76.83,21.36-111.5,45.28C1055.17,734.68,1110.48,747.91,1156,742Z" transform="translate(0 119)"/><path class="cls-34" d="M1448.45,876.45a275,275,0,0,1-388.9,0C1025.47,842.38,998.44,796.38,986,748c-4.66-18.11-4.58-37.6-6-55.41l-1,.67A275,275,0,0,0,1529,687l-.06,0c-.52,29.6-5.94,57-13.94,86C1504.12,812.43,1478.23,846.68,1448.45,876.45Z" transform="translate(0 119)"/><path class="cls-35" d="M1528.94,687l.06,0q0-1.47,0-2.94C1529,685,1529,686,1528.94,687Z" transform="translate(0 119)"/><g id="moon" class="cls-36"><path class="cls-37" d="M1254,961c-60.79,0-118-19.31-165.9-55.89A278.15,278.15,0,0,0,1154,913a276,276,0,0,0,195.16-471.16c-6.47-6.48-13.37-12.71-20.53-18.59A274.06,274.06,0,0,1,1254,961Z" transform="translate(0 119)"/><path class="cls-37" d="M1333,425.55a273.11,273.11,0,1,1-168.78,519.39,269.61,269.61,0,0,1-71.65-37.77A279,279,0,0,0,1154,914a277,277,0,0,0,195.87-472.87c-5.38-5.38-11-10.6-16.92-15.58m-8.67-4.52a279.76,279.76,0,0,1,24.17,21.52A275,275,0,0,1,1154,912a276.9,276.9,0,0,1-70.28-9A275,275,0,1,0,1324.28,421Z" transform="translate(0 119)"/></g><g id="shine" class="cls-38"><circle class="cls-39" cx="1254" cy="806" r="290"/></g><g id="low_yellow" data-name="low yellow" class="cls-40"><path class="cls-41" d="M1254,962a275,275,0,1,1,194.45-80.55A273.19,273.19,0,0,1,1254,962Z" transform="translate(0 119)"/></g><path id="lower_wave" data-name="lower wave" class="cls-42" d="M1059.55,881.45a275.27,275.27,0,0,0,453.56-101.91A368.33,368.33,0,0,0,1427,764c-81.89-5.16-133.26,56.09-206,64-46,5-133,3-230-61C1003,811,1033.77,855.68,1059.55,881.45Z" transform="translate(0 119)"/><circle id="planet-3" data-name="planet" class="cls-43" cx="1427.5" cy="1055.5" r="112.5"/><g class="cls-44"><path class="cls-45" d="M1684.05,385.87c-38-54.29-261.37,36.52-498.88,202.83S785.93,933.84,824,988.13s261.37-36.52,498.88-202.83S1722.07,440.16,1684.05,385.87Zm-372.69,383c-223.94,156.8-431.16,247.24-462.84,202s124.18-209,348.12-365.84,431.16-247.24,462.84-202S1535.3,612.11,1311.36,768.92Z" transform="translate(0 119)"/></g><path id="tear-3" data-name="tear" class="cls-46" d="M1582.64,266.57c-6.91,6.9-15.6,9.39-19.43,5.56s-1.34-12.52,5.56-19.42,94.4-80.54,94.4-80.54S1589.54,259.67,1582.64,266.57Z" transform="translate(0 119)"/></g></g></svg>