<svg id="Layer_1" data-name="Layer 1" xmlns="http://www.w3.org/2000/svg" xmlns:xlink="http://www.w3.org/1999/xlink" viewBox="0 0 1331.3 1371.39"><defs><style>.cls-1{opacity:0.15;}.cls-2{fill:url(#linear-gradient);}.cls-3{fill:url(#linear-gradient-2);}.cls-4{fill:url(#linear-gradient-3);}.cls-5{fill:url(#linear-gradient-5);}</style><linearGradient id="linear-gradient" x1="1689.31" y1="1419.99" x2="862.59" y2="8.91" gradientUnits="userSpaceOnUse"><stop offset="0" stop-color="#fff"/><stop offset="0" stop-color="#ffc500"/><stop offset="1" stop-color="#c21500"/></linearGradient><linearGradient id="linear-gradient-2" x1="1633.59" y1="1324.87" x2="919.25" y2="105.63" xlink:href="#linear-gradient"/><linearGradient id="linear-gradient-3" x1="1582.99" y1="1238.52" x2="970.7" y2="193.44" xlink:href="#linear-gradient"/><linearGradient id="linear-gradient-5" x1="918.63" y1="1117.49" x2="408.4" y2="246.62" xlink:href="#linear-gradient"/></defs><title>sunny</title><g class="cls-1"><path class="cls-2" d="M1279.41,1406a645,645,0,0,1-259.18-54,662.32,662.32,0,0,1-211.51-146.84A684.57,684.57,0,0,1,666.17,987.33a706.24,706.24,0,0,1,0-534A684.53,684.53,0,0,1,808.72,235.49,662.35,662.35,0,0,1,1020.23,88.64a649.07,649.07,0,0,1,518.35,0,662.35,662.35,0,0,1,211.51,146.85,684.64,684.64,0,0,1,142.55,217.87,706.24,706.24,0,0,1,0,534,684.68,684.68,0,0,1-142.55,217.88,662.48,662.48,0,0,1-211.51,146.84A645,645,0,0,1,1279.41,1406Z" transform="translate(-613.76 -34.65)"/></g><g class="cls-1"><path class="cls-3" d="M1279.4,1312.81a557.16,557.16,0,0,1-223.92-46.63,572.29,572.29,0,0,1-182.76-126.89A591.61,591.61,0,0,1,749.52,951a610.42,610.42,0,0,1,0-461.33A591.81,591.81,0,0,1,872.71,301.41a572.37,572.37,0,0,1,182.77-126.9,561,561,0,0,1,447.85,0,572.37,572.37,0,0,1,182.77,126.9,591.81,591.81,0,0,1,123.19,188.27,610.42,610.42,0,0,1,0,461.33,591.7,591.7,0,0,1-123.19,188.27,572.21,572.21,0,0,1-182.77,126.9A557.17,557.17,0,0,1,1279.4,1312.81Z" transform="translate(-613.76 -34.65)"/></g><g class="cls-1"><path class="cls-4" d="M1279.4,1228.18a477.53,477.53,0,0,1-191.91-40,490.74,490.74,0,0,1-156.68-108.79A507.13,507.13,0,0,1,825.2,918a523.3,523.3,0,0,1,0-395.39A507.2,507.2,0,0,1,930.81,361.26a490.66,490.66,0,0,1,156.68-108.8,481.05,481.05,0,0,1,383.83,0A490.66,490.66,0,0,1,1628,361.26a507.2,507.2,0,0,1,105.61,161.39,523.3,523.3,0,0,1,0,395.39A507.24,507.24,0,0,1,1628,1079.44a490.74,490.74,0,0,1-156.68,108.79A477.54,477.54,0,0,1,1279.4,1228.18Z" transform="translate(-613.76 -34.65)"/></g><g class="cls-1"><path class="cls-4" d="M1279.4,1228.18a477.53,477.53,0,0,1-191.91-40,490.74,490.74,0,0,1-156.68-108.79A507.13,507.13,0,0,1,825.2,918a523.3,523.3,0,0,1,0-395.39A507.2,507.2,0,0,1,930.81,361.26a490.66,490.66,0,0,1,156.68-108.8,481.05,481.05,0,0,1,383.83,0A490.66,490.66,0,0,1,1628,361.26a507.2,507.2,0,0,1,105.61,161.39,523.3,523.3,0,0,1,0,395.39A507.24,507.24,0,0,1,1628,1079.44a490.74,490.74,0,0,1-156.68,108.79A477.54,477.54,0,0,1,1279.4,1228.18Z" transform="translate(-613.76 -34.65)"/></g><ellipse class="cls-5" cx="665.65" cy="685.7" rx="410.82" ry="423.19"/></svg>